ply
format ascii 1.0
element vertex 348
property float x
property float y
property float z
element face 628
property list uchar int vertex_indices
property uchar red
property uchar green
property uchar blue
end_header
12.8144187927246094 3.71543598175048828 40.3912620544433594
3.4611811637878418 5.61390924453735352 15.8463201522827148
4.47785234451293945 0.57740473747253418 27.9488506317138672
-9.48208427429199219 -14.7506589889526367 19.8234729766845703
15.8123264312744141 14.1545114517211914 38.5904464721679688
-12.9205179214477539 -1.3899153470993042 42.1018104553222656
-14.6782779693603516 -17.9946956634521484 31.7930545806884766
-14.9128456115722656 -10.4399089813232422 39.6659965515136719
10.6794528961181641 13.0834369659423828 26.7103099822998047
-6.83257627487182617 -11.3195562362670898 15.8929939270019531
-0.38356897234916687 -0.641965091228485107 11.4815797805786133
-3.70913028717041016 -5.18980216979980469 17.6472835540771484
1.14420902729034424 1.13843166828155518 17.7071456909179688
-8.55248737335205078 -4.57792901992797852 31.5622653961181641
-8.46196269989013672 -15.3520536422729492 13.2735233306884766
9.99968719482421875 5.37952470779418945 33.6979026794433594
14.9904279708862305 22.2090663909912109 27.3352260589599609
1.01471960544586182 -6.02037858963012695 29.7737159729003906
-15.7956457138061523 -23.1303939819335938 28.7524127960205078
-4.87009239196777344 -3.15576529502868652 25.4724197387695312
-11.9161195755004883 -15.548253059387207 26.9084224700927734
15.4986171722412109 8.7983856201171875 42.1696891784667969
10.0830707550048828 15.3483915328979492 21.0317916870117188
-1.7555692195892334 -0.0460018254816532135 22.9767742156982422
-11.4310531616210938 -6.91632556915283203 35.229522705078125
3.15492725372314453 5.77615213394165039 10.2266111373901367
-6.82184219360351562 0.846059441566467285 33.3011550903320312
2.05475997924804688 5.30788707733154297 24.832763671875
-9.15668678283691406 -13.0947723388671875 22.0051441192626953
5.74789762496948242 10.4764633178710938 11.4459228515625
-8.11782932281494141 3.60281085968017578 37.310516357421875
10.5266447067260742 17.8360023498535156 17.7935543060302734
-7.715545654296875 -11.3004436492919922 19.9246768951416016
9.40130615234375 -0.518951535224914551 37.2598381042480469
-2.59545016288757324 -5.96500587463378906 25.2111568450927734
-5.1262211799621582 -7.3778996467590332 21.1105709075927734
12.8117427825927734 14.4958934783935547 30.7879905700683594
4.63053417205810547 5.76399898529052734 20.1591510772705078
4.71413898468017578 4.52722930908203125 22.9131851196289062
-13.498835563659668 -13.5060100555419922 33.6308364868164062
-1.18751645088195801 -2.46454858779907227 3.36301755905151367
-11.1672935485839844 -19.7196426391601562 16.6579074859619141
2.42542767524719238 2.71047568321228027 18.9937820434570312
10.1028852462768555 8.47644710540771484 30.898529052734375
-0.240743160247802734 -2.47783780097961426 22.9201812744140625
-10.7847843170166016 -17.4281826019287109 19.7770519256591797
15.5034503936767578 19.7494220733642578 32.0926971435546875
0.120614081621170044 3.00392317771911621 24.2365741729736328
-9.47096633911132812 -1.04942584037780762 36.2499313354492188
-0.0140940770506858826 -3.27203083038330078 24.9086036682128906
5.67149496078491211 8.73735904693603516 17.0870418548583984
13.6071138381958008 9.88229656219482422 37.2802810668945312
8.17204570770263672 14.6792068481445312 13.5153074264526367
9.06242656707763672 15.3539667129516602 16.576690673828125
-14.5772438049316406 -23.4220008850097656 24.0635185241699219
-5.03578281402587891 -9.24586009979248047 10.8268632888793945
2.36340928077697754 -0.894059598445892334 25.8301277160644531
-1.7218468189239502 -2.02012419700622559 17.68609619140625
1.47063028812408447 2.75633597373962402 8.97000312805175781
-1.10416805744171143 3.04163813591003418 26.50958251953125
1.90016531944274902 3.07851743698120117 13.6284551620483398
13.7237405776977539 13.1532144546508789 34.5363693237304688
9.16788196563720703 13.0814380645751953 21.8840579986572266
-1.46198499202728271 -3.08754205703735352 20.4929122924804688
-12.4857702255249023 -18.1776027679443359 24.8332653045654297
5.57484292984008789 -1.30417180061340332 31.7007369995117188
-0.268615484237670898 -0.297783374786376953 14.1987009048461914
1.76795625686645508 0.265018165111541748 22.5841598510742188
-5.37351751327514648 0.76477515697479248 30.8865795135498047
8.41492652893066406 3.97693800926208496 31.8745212554931641
-4.64138174057006836 -7.77047395706176758 14.1112556457519531
13.6186304092407227 21.5742244720458984 23.4464874267578125
-12.7668972015380859 -21.4689617156982422 20.2708110809326172
16.4885673522949219 13.3982048034667969 40.8176002502441406
5.54717350006103516 3.01705408096313477 27.1493930816650391
-12.0177297592163086 -14.1244173049926758 29.0951881408691406
-0.807325005531311035 -0.186298742890357971 19.4462184906005859
-2.39570093154907227 4.26623058319091797 29.781097412109375
6.6065220832824707 11.0035829544067383 15.4140348434448242
-7.34699201583862305 -13.2213306427001953 12.9094266891479492
11.969141960144043 16.3080673217773438 25.9763317108154297
-9.05975627899169922 -15.2619457244873047 16.7711753845214844
-10.5252208709716797 1.67305243015289307 39.8686103820800781
-14.5044937133789062 -12.372105598449707 37.1156158447265625
6.85945844650268555 4.83864402770996094 27.7526435852050781
-11.9643230438232422 -10.0289764404296875 33.5057601928710938
-3.07062697410583496 -1.91720688343048096 22.9953594207763672
15.8175363540649414 17.3806171417236328 35.5445213317871094
-12.9510316848754883 -9.21453380584716797 36.4331703186035156
-4.75319290161132812 -0.311832547187805176 28.7471027374267578
-14.5677471160888672 -21.4004306793212891 27.0602436065673828
7.35092401504516602 -2.1394193172454834 35.1349830627441406
-18.7825775146484375 -20.9552879333496094 39.9289703369140625
-1.41816091537475586 1.29010117053985596 24.5264377593994141
6.91551303863525391 2.05439591407775879 30.8794517517089844
11.8248271942138672 3.69789457321166992 38.54693603515625
-10.4576444625854492 -14.1127567291259766 24.5037689208984375
-14.7266550064086914 -15.5087985992431641 34.6431121826171875
15.9761829376220703 23.9013996124267578 28.3146686553955078
-1.95877981185913086 -3.79018163681030273 7.38535070419311523
-2.37175965309143066 -4.06334257125854492 12.3851346969604492
6.87872219085693359 8.35204696655273438 22.6984806060791016
-8.82522678375244141 -3.06981682777404785 33.4731674194335938
8.06134891510009766 -4.5540008544921875 37.8351325988769531
11.2350730895996094 16.9797000885009766 22.4098834991455078
3.2337794303894043 1.41290187835693359 24.2621326446533203
-13.7980537414550781 -15.3482456207275391 32.4188003540039062
-4.10025310516357422 -8.18064403533935547 6.27751874923706055
-4.14079809188842773 -4.08733892440795898 22.0194911956787109
4.37359237670898438 7.77855777740478516 11.8446521759033203
-3.38242650032043457 -1.16977417469024658 24.9760551452636719
7.54523229598999023 0.641636967658996582 33.268280029296875
1.73039722442626953 1.10316765308380127 20.5865516662597656
9.22052383422851562 6.00520944595336914 31.5147953033447266
-3.82404303550720215 -6.93005657196044922 10.9838600158691406
-5.90294504165649414 4.16514921188354492 34.4827690124511719
-16.0493373870849609 -10.2981424331665039 42.2489204406738281
-0.943948090076446533 -1.88468742370605469 5.60254335403442383
-10.7437992095947266 -4.30452871322631836 36.0483055114746094
-5.94789361953735352 -11.9710416793823242 6.50983762741088867
11.1123247146606445 11.6194953918457031 29.7596397399902344
2.91295266151428223 5.82444381713867188 5.82624340057373047
11.9732894897460938 0.621644020080566406 40.8949813842773438
-5.99285268783569336 -10.9145326614379883 11.6030817031860352
-13.2524833679199219 -6.63069963455200195 39.1480560302734375
10.4655284881591797 14.2390537261962891 24.424224853515625
-17.8932037353515625 -18.1424655914306641 40.1691627502441406
10.4429969787597656 19.4558029174804688 13.5365457534790039
-1.31050252914428711 -2.27265024185180664 14.0556125640869141
12.8628864288330078 18.3937911987304688 25.7779159545898438
1.71107232570648193 4.09010934829711914 22.8398036956787109
7.46515750885009766 11.2966089248657227 18.8916492462158203
12.5741949081420898 20.1804599761962891 21.8257217407226562
-13.9530019760131836 -8.619842529296875 39.0542068481445312
7.63285541534423828 13.1775808334350586 14.7859630584716797
-5.84862136840820312 -3.33376646041870117 27.397369384765625
-7.40058755874633789 -1.41908001899719238 32.3453750610351562
-6.61999130249023438 -2.99961614608764648 29.3521270751953125
-15.7930593490600586 -16.5548858642578125 36.3074264526367188
-3.52872991561889648 0.216678917407989502 27.1378154754638672
10.8232126235961914 0.709153711795806885 38.8308067321777344
5.54951667785644531 6.42519378662109375 21.9821224212646484
-2.84264326095581055 -4.6838231086730957 15.3284597396850586
-12.1997156143188477 -3.67780327796936035 39.2631568908691406
0.856292068958282471 6.53567838668823242 28.2332057952880859
-1.15395057201385498 -2.1210322380065918 9.97314167022705078
10.8522930145263672 7.28345632553100586 33.699249267578125
-8.30506038665771484 -13.0610685348510742 18.4853324890136719
0.920139014720916748 -3.81158185005187988 27.2142810821533203
10.2573518753051758 2.3754432201385498 36.64532470703125
14.6355533599853516 14.8546628952026367 35.0789718627929688
-3.72353315353393555 5.47631120681762695 32.5685234069824219
-5.10707712173461914 -7.43241119384765625 17.9830379486083984
14.5765476226806641 16.6342658996582031 33.0575408935546875
4.71128320693969727 8.93892002105712891 9.12702465057373047
5.06964206695556641 8.37425899505615234 14.7618598937988281
11.8047122955322266 7.24773502349853516 35.7120742797851562
2.09847760200500488 2.81269335746765137 16.8511466979980469
-9.98654842376708984 -5.74005460739135742 33.3393821716308594
-16.3195610046386719 -22.4118175506591797 31.3414821624755859
-4.76780891418457031 -9.26571083068847656 7.93588590621948242
5.97939729690551758 5.08993625640869141 25.3733692169189453
-10.0188760757446289 0.0224018841981887817 37.9507675170898438
9.96765708923339844 16.0803890228271484 19.0833282470703125
17.2853813171386719 18.1144847869873047 38.6367378234863281
8.94046592712402344 1.34520339965820312 35.1036796569824219
-15.8384532928466797 -14.7319622039794922 38.137847900390625
1.23474407196044922 2.41416764259338379 6.75232648849487305
13.8351364135742188 16.7711601257324219 30.8792362213134766
0.31162869930267334 0.564053833484649658 9.62789344787597656
8.38289737701416016 16.2290134429931641 10.031651496887207
3.5915980339050293 -2.78358912467956543 30.0282459259033203
14.1122703552246094 7.85404062271118164 39.9758491516113281
3.61386632919311523 6.19312381744384766 13.3532724380493164
14.2504339218139648 2.70609593391418457 43.7418212890625
-17.0267314910888672 -13.8218631744384766 41.7243690490722656
-10.3912525177001953 -15.4428319931030273 22.07525634765625
3.35129809379577637 3.26750445365905762 21.1653251647949219
6.81681442260742188 12.6540861129760742 11.1785335540771484
8.27009296417236328 11.002009391784668 22.5350532531738281
-6.67983293533325195 -9.69896793365478516 19.2594470977783203
12.0858592987060547 9.53185272216796875 34.2568435668945312
8.44693374633789062 13.1888809204101562 18.8181743621826172
-5.88039112091064453 -9.43526744842529297 16.1213207244873047
3.60949873924255371 5.62651395797729492 18.3102436065673828
-15.7463102340698242 -20.5199928283691406 31.8922882080078125
9.50937271118164062 3.22003436088562012 34.6137657165527344
6.4913325309753418 12.8661155700683594 7.64333868026733398
-8.90646648406982422 -17.0539493560791016 10.9683399200439453
14.6682701110839844 13.1720647811889648 36.768829345703125
0.845154047012329102 1.55483520030975342 15.3552618026733398
-0.010608782060444355 -0.425687938928604126 16.8481311798095703
-14.3550891876220703 -6.94893789291381836 41.137542724609375
-4.32211399078369141 -5.44300603866577148 19.7180843353271484
16.6727008819580078 21.8826484680175781 33.0383415222167969
17.7061691284179688 21.0667133331298828 36.8810272216796875
14.9328031539916992 20.3080711364746094 29.7053737640380859
-2.71382308006286621 -5.04676961898803711 9.42721939086914062
-13.484832763671875 -16.5470485687255859 30.1681900024414062
-8.28790664672851562 -0.657887160778045654 34.5207595825195312
-7.90382480621337891 -14.8523931503295898 11.2443628311157227
-10.9474964141845703 -1.8572460412979126 38.2583465576171875
5.00815010070800781 7.41453218460083008 24.4058170318603516
14.002842903137207 18.2576637268066406 29.5224418640136719
-1.16664552688598633 -5.94358968734741211 27.1282253265380859
2.57734131813049316 -6.04177045822143555 31.6236515045166016
11.8636198043823242 14.5480422973632812 28.1607723236083984
-17.4037094116210938 -8.521697998046875 46.3851699829101562
15.0477848052978516 10.4748373031616211 39.932861328125
-3.7382659912109375 -6.20759010314941406 23.3981056213378906
-6.194580078125 6.02218914031982422 36.1633644104003906
2.75005888938903809 -1.82234823703765869 27.6974430084228516
1.42404568195343018 2.54231023788452148 11.4751949310302734
-11.981297492980957 -22.4840221405029297 14.5345525741577148
-13.5081396102905273 -17.9194698333740234 28.4875717163085938
16.2802562713623047 7.79495716094970703 44.5025596618652344
-11.7211732864379883 -11.1949634552001953 31.7668266296386719
-16.8847560882568359 -19.7330760955810547 35.9863395690917969
5.66557502746582031 1.02619028091430664 29.6297874450683594
16.8108806610107422 15.9103822708129883 39.4488563537597656
12.7426433563232422 12.6000938415527344 32.7205123901367188
-2.27198123931884766 -4.73832464218139648 3.20493030548095703
-7.26729679107666016 -14.4528713226318359 7.87180519104003906
9.26021289825439453 16.453460693359375 14.7821893692016602
0.376610636711120605 4.83575296401977539 26.6663684844970703
-2.87234973907470703 2.3823997974395752 28.5257606506347656
-8.71977615356445312 1.074684739112854 36.5327224731445312
8.07598209381103516 5.598480224609375 29.5212841033935547
-11.3818569183349609 -16.1777706146240234 24.2926158905029297
5.24991559982299805 -4.86344623565673828 34.0954437255859375
4.34732341766357422 8.69353008270263672 6.23102140426635742
-16.7720451354980469 -17.8989925384521484 37.515167236328125
11.4541511535644531 4.86786842346191406 36.9629249572753906
17.1884479522705078 10.7693452835083008 44.3945846557617188
-10.9981069564819336 -13.5245237350463867 27.0982189178466797
-13.3823280334472656 -11.2842378616333008 35.5370101928710938
-17.0982246398925781 -16.2830371856689453 39.8263168334960938
6.10213279724121094 9.04365634918212891 19.3072185516357422
12.9124031066894531 7.55391597747802734 37.7401008605957031
-13.406468391418457 -19.0069637298583984 26.6540679931640625
14.9178981781005859 6.75940132141113281 42.4099693298339844
8.76168155670166016 16.3996353149414062 12.0148496627807617
-3.44702315330505371 -5.75608634948730469 13.6107473373413086
17.9912490844726562 16.4573040008544922 41.8708038330078125
-3.08567523956298828 -6.06686544418334961 6.78815698623657227
11.1799345016479492 9.96437644958496094 31.7714691162109375
-15.7707624435424805 -18.7890281677246094 33.934295654296875
-17.4579658508300781 -12.8612508773803711 43.4662055969238281
-15.8912420272827148 -12.0162744522094727 40.5728111267089844
11.9163999557495117 21.5120716094970703 16.3615474700927734
-5.66980314254760742 -10.8635835647583008 9.0460662841796875
12.7836008071899414 16.6782894134521484 27.9620399475097656
9.78528213500976562 -2.39117193222045898 39.1178359985351562
13.146784782409668 22.8289642333984375 19.3415374755859375
9.27007007598876953 11.8729476928710938 24.2979564666748047
-11.5173206329345703 2.23304200172424316 41.8408012390136719
3.89221334457397461 -4.39682435989379883 31.9049758911132812
16.77374267578125 23.6753177642822266 31.2078571319580078
-0.719525814056396484 -1.37608063220977783 7.78182458877563477
10.3435153961181641 18.3162307739257812 15.8085451126098633
5.32860565185546875 -3.15669941902160645 32.8911056518554688
16.7881965637207031 20.6947021484375 34.7012786865234375
-11.6089086532592773 -17.6811237335205078 22.5412063598632812
14.2238864898681641 23.5873050689697266 22.4395790100097656
13.6566066741943359 14.5874958038330078 32.8939018249511719
-5.39476823806762695 -11.1420145034790039 4.72795009613037109
-11.7416973114013672 -19.0610885620117188 20.5507411956787109
-4.18195056915283203 -6.70455217361450195 16.2299575805664062
-12.5152072906494141 -22.1158123016357422 17.9208736419677734
-14.722625732421875 -4.99565601348876953 43.2028656005859375
-2.09550142288208008 -4.5370020866394043 22.9712314605712891
-14.6559877395629883 -19.2984542846679688 30.1485099792480469
-10.6112699508666992 -20.0521831512451172 12.9629907608032227
2.57449698448181152 4.46505451202392578 12.0731744766235352
-12.9508514404296875 -20.1080360412597656 23.3776645660400391
2.51680159568786621 4.81792068481445312 8.056732177734375
7.87810993194580078 12.9667396545410156 16.7810096740722656
4.7352595329284668 -0.840618729591369629 29.9128894805908203
-11.8900880813598633 -5.5511474609375 37.2750511169433594
14.0847244262695312 21.0651073455810547 25.9100112915039062
12.1263961791992188 21.04931640625 18.3099403381347656
-7.873565673828125 -13.5114955902099609 15.1836967468261719
4.59880733489990234 3.0049443244934082 25.0577964782714844
11.5424280166625977 19.1800956726074219 19.4920978546142578
0.572229743003845215 2.41216754913330078 21.8072338104248047
-9.61847782135009766 -17.8192272186279297 13.1491289138793945
0.347334116697311401 -1.12470161914825439 21.4504318237304688
13.0522279739379883 5.87276935577392578 39.315887451171875
-5.61999177932739258 -9.60553550720214844 14.1029882431030273
15.4882020950317383 5.13781166076660156 44.6201553344726562
-16.1835269927978516 -25.8278446197509766 26.3371906280517578
-5.58218479156494141 2.68642997741699219 32.8826332092285156
17.7825374603271484 14.6771297454833984 42.8159141540527344
-10.2857513427734375 -17.4479007720947266 17.5310802459716797
-7.12282800674438477 2.44986796379089355 35.0133285522460938
-17.3919334411621094 -21.9929599761962891 35.0190658569335938
3.64071536064147949 7.02486085891723633 7.92954683303833008
-3.16631984710693359 -3.76489925384521484 19.2632083892822266
15.8587427139282227 15.8134784698486328 37.1875572204589844
-9.91535091400146484 -17.5248336791992188 15.5319423675537109
6.53098011016845703 3.16431784629821777 28.9964122772216797
-3.82493972778320312 2.73378133773803711 30.3262424468994141
-2.01762723922729492 7.67557191848754883 32.3328323364257812
3.30219721794128418 5.44417619705200195 21.7965869903564453
5.99692630767822266 11.3883867263793945 9.64819240570068359
-6.80059909820556641 -12.9263124465942383 10.0206146240234375
-3.59795570373535156 -6.79903650283813477 8.93476390838623047
-10.9119510650634766 -8.26512336730957031 32.9055366516113281
0.696523785591125488 1.12107169628143311 12.7148504257202148
-9.48587322235107422 5.14678430557250977 40.2983436584472656
6.68719625473022461 -5.15201950073242188 36.2616348266601562
-0.264956355094909668 7.60300350189208984 30.4889888763427734
1.11115062236785889 -1.31621766090393066 23.9007682800292969
-0.928031086921691895 5.63921976089477539 29.2883281707763672
-12.7384567260742188 -13.8245534896850586 31.3701858520507812
-18.6576976776123047 -15.1635265350341797 44.5126266479492188
4.94124174118041992 7.46526145935058594 18.6548538208007812
-14.0012693405151367 -2.2377324104309082 43.5617332458496094
-4.35373163223266602 -9.04459667205810547 3.97746181488037109
15.0349798202514648 24.0334911346435547 24.8122940063476562
-15.2070131301879883 -2.44336438179016113 45.7056007385253906
-1.86278855800628662 -1.12420189380645752 21.0042953491210938
14.8570127487182617 11.8326387405395508 38.3909645080566406
-15.685943603515625 -6.63917684555053711 44.0482063293457031
14.1155738830566406 4.27530479431152344 42.4935379028320312
12.3508167266845703 18.7943744659423828 23.3693885803222656
16.2332229614257812 11.3972330093383789 41.8230056762695312
-17.8594608306884766 -24.6584796905517578 33.4281578063964844
-4.15063238143920898 7.4890589714050293 34.5792465209960938
-11.8547677993774414 -20.2263565063476562 18.7581615447998047
5.32408952713012695 10.6405019760131836 6.63628292083740234
-13.4208793640136719 -3.6775062084197998 41.56097412109375
3.170318603515625 7.18608522415161133 26.6643848419189453
2.3773643970489502 -4.49426126480102539 29.9783191680908203
-14.1205911636352539 -24.8426647186279297 19.8283977508544922
7.36418485641479492 10.2088384628295898 20.8470668792724609
-9.96867942810058594 -19.5095958709716797 10.5810375213623047
-11.3380880355834961 -0.460265874862670898 39.8886985778808594
15.7778749465942383 18.7064113616943359 34.0433578491210938
13.3906755447387695 11.2254123687744141 35.6049118041992188
-6.62393569946289062 -11.5493011474609375 13.7601261138916016
13.1575813293457031 0.493136078119277954 43.0715522766113281
-13.8536977767944336 -21.0290050506591797 25.1612796783447266
-7.07954549789428711 -9.92070484161376953 21.2329444885253906
13.672999382019043 18.9748516082763672 27.5596141815185547
-6.2604680061340332 -1.23176753520965576 30.4928836822509766
-14.9291629791259766 -14.2972984313964844 36.3426132202148438
-8.18516063690185547 -16.4550609588623047 7.80230951309204102
3 0 95 287 122 122 122
3 91 229 260 122 122 122
3 171 256 333 122 122 122
3 171 211 333 122 122 122
3 44 49 312 122 122 122
3 44 49 270 122 122 122
3 57 63 297 122 122 122
3 11 57 297 122 122 122
3 11 142 267 122 122 122
3 142 242 267 122 122 122
3 70 242 267 122 122 122
3 70 183 267 122 122 122
3 70 183 288 122 122 122
3 9 183 288 122 122 122
3 9 281 340 122 122 122
3 81 147 281 122 122 122
3 3 81 147 122 122 122
3 3 45 176 122 122 122
3 176 228 262 122 122 122
3 198 214 271 122 122 122
3 6 106 198 122 122 122
3 39 97 346 122 122 122
3 118 143 278 122 122 122
3 48 102 118 122 122 122
3 102 136 199 122 122 122
3 68 89 345 122 122 122
3 89 139 225 122 122 122
3 93 110 139 122 122 122
3 23 93 110 122 122 122
3 23 86 321 122 122 122
3 76 286 321 122 122 122
3 57 76 321 122 122 122
3 57 76 191 122 122 122
3 57 128 191 122 122 122
3 100 128 142 122 122 122
3 100 114 242 122 122 122
3 55 70 114 122 122 122
3 55 123 288 122 122 122
3 79 123 340 122 122 122
3 14 79 281 122 122 122
3 81 293 299 122 122 122
3 262 266 274 122 122 122
3 90 239 342 122 122 122
3 6 185 271 122 122 122
3 97 138 246 122 122 122
3 138 166 346 122 122 122
3 7 116 248 122 122 122
3 124 133 192 122 122 122
3 124 143 331 122 122 122
3 162 201 337 122 122 122
3 48 162 226 122 122 122
3 26 291 294 122 122 122
3 26 68 291 122 122 122
3 77 225 301 122 122 122
3 47 59 93 122 122 122
3 47 130 284 122 122 122
3 42 112 284 122 122 122
3 12 42 157 122 122 122
3 1 60 157 122 122 122
3 1 60 173 122 122 122
3 1 155 173 122 122 122
3 109 155 173 122 122 122
3 29 78 155 122 122 122
3 78 134 276 122 122 122
3 53 182 276 122 122 122
3 80 129 325 122 122 122
3 203 251 344 122 122 122
3 150 153 264 122 122 122
3 4 189 322 122 122 122
3 51 208 322 122 122 122
3 172 238 287 122 122 122
3 95 232 287 122 122 122
3 149 165 186 122 122 122
3 111 165 186 122 122 122
3 65 91 111 122 122 122
3 65 218 277 122 122 122
3 65 171 277 122 122 122
3 2 211 277 122 122 122
3 2 56 211 122 122 122
3 56 105 312 122 122 122
3 67 286 312 122 122 122
3 67 112 286 122 122 122
3 76 112 286 122 122 122
3 12 76 112 122 122 122
3 12 76 191 122 122 122
3 12 190 191 122 122 122
3 66 190 191 122 122 122
3 66 190 308 122 122 122
3 10 66 308 122 122 122
3 10 169 308 122 122 122
3 58 167 169 122 122 122
3 58 167 275 122 122 122
3 121 167 275 122 122 122
3 121 275 296 122 122 122
3 121 230 296 122 122 122
3 154 230 330 122 122 122
3 187 304 330 122 122 122
3 170 178 187 122 122 122
3 127 223 259 122 122 122
3 249 253 280 122 122 122
3 71 263 319 122 122 122
3 194 195 261 122 122 122
3 164 219 243 122 122 122
3 73 292 326 122 122 122
3 21 215 240 122 122 122
3 122 252 341 122 122 122
3 33 103 252 122 122 122
3 205 229 256 122 122 122
3 205 256 333 122 122 122
3 17 205 333 122 122 122
3 17 148 204 122 122 122
3 34 209 270 122 122 122
3 108 209 270 122 122 122
3 35 108 209 122 122 122
3 35 180 343 122 122 122
3 32 180 343 122 122 122
3 28 32 343 122 122 122
3 28 96 176 122 122 122
3 20 96 234 122 122 122
3 20 75 234 122 122 122
3 75 216 314 122 122 122
3 85 216 307 122 122 122
3 24 85 307 122 122 122
3 24 158 307 122 122 122
3 13 158 307 122 122 122
3 13 102 158 122 122 122
3 19 108 209 122 122 122
3 35 108 193 122 122 122
3 35 152 193 122 122 122
3 35 152 180 122 122 122
3 19 86 108 122 122 122
3 96 176 228 122 122 122
3 75 198 314 122 122 122
3 39 216 314 122 122 122
3 39 85 216 122 122 122
3 24 118 158 122 122 122
3 13 102 136 122 122 122
3 89 135 137 122 122 122
3 19 86 110 122 122 122
3 108 193 297 122 122 122
3 11 193 297 122 122 122
3 11 152 193 122 122 122
3 152 180 183 122 122 122
3 28 32 147 122 122 122
3 3 28 147 122 122 122
3 20 75 198 122 122 122
3 39 106 314 122 122 122
3 39 85 235 122 122 122
3 85 88 235 122 122 122
3 102 118 158 122 122 122
3 136 137 345 122 122 122
3 89 137 345 122 122 122
3 63 108 297 122 122 122
3 11 152 267 122 122 122
3 152 183 267 122 122 122
3 9 180 183 122 122 122
3 9 32 147 122 122 122
3 3 28 176 122 122 122
3 106 198 314 122 122 122
3 39 97 106 122 122 122
3 83 88 235 122 122 122
3 24 88 278 122 122 122
3 24 118 278 122 122 122
3 19 110 139 122 122 122
3 23 86 110 122 122 122
3 63 86 321 122 122 122
3 11 57 142 122 122 122
3 9 147 281 122 122 122
3 3 45 293 122 122 122
3 45 176 262 122 122 122
3 64 228 262 122 122 122
3 6 198 271 122 122 122
3 7 83 88 122 122 122
3 88 124 133 122 122 122
3 48 118 201 122 122 122
3 48 102 199 122 122 122
3 26 136 199 122 122 122
3 23 286 321 122 122 122
3 66 128 191 122 122 122
3 10 66 128 122 122 122
3 100 145 197 122 122 122
3 99 145 197 122 122 122
3 114 197 306 122 122 122
3 55 160 306 122 122 122
3 55 160 250 122 122 122
3 123 250 305 122 122 122
3 79 200 305 122 122 122
3 41 293 299 122 122 122
3 72 266 329 122 122 122
3 54 274 342 122 122 122
3 18 90 271 122 122 122
3 185 246 295 122 122 122
3 175 247 248 122 122 122
3 116 192 323 122 122 122
3 192 269 331 122 122 122
3 82 162 226 122 122 122
3 30 226 294 122 122 122
3 115 291 294 122 122 122
3 77 151 301 122 122 122
3 59 77 313 122 122 122
3 47 59 224 122 122 122
3 27 47 224 122 122 122
3 27 47 130 122 122 122
3 130 177 303 122 122 122
3 37 184 316 122 122 122
3 1 184 316 122 122 122
3 50 237 316 122 122 122
3 50 131 237 122 122 122
3 78 131 276 122 122 122
3 131 182 276 122 122 122
3 62 131 182 122 122 122
3 22 104 125 122 122 122
3 80 206 251 122 122 122
3 36 220 264 122 122 122
3 61 220 339 122 122 122
3 51 181 339 122 122 122
3 15 186 232 122 122 122
3 69 94 111 122 122 122
3 94 218 300 122 122 122
3 2 74 218 122 122 122
3 2 74 282 122 122 122
3 2 105 282 122 122 122
3 67 105 177 122 122 122
3 67 112 177 122 122 122
3 42 112 177 122 122 122
3 42 157 184 122 122 122
3 1 157 184 122 122 122
3 1 50 155 122 122 122
3 50 78 155 122 122 122
3 53 163 182 122 122 122
3 22 104 163 122 122 122
3 80 129 251 122 122 122
3 61 150 264 122 122 122
3 61 189 339 122 122 122
3 65 94 111 122 122 122
3 65 94 218 122 122 122
3 2 218 277 122 122 122
3 67 105 312 122 122 122
3 67 112 284 122 122 122
3 12 42 112 122 122 122
3 12 157 190 122 122 122
3 60 157 190 122 122 122
3 60 212 273 122 122 122
3 60 173 273 122 122 122
3 25 173 273 122 122 122
3 25 109 173 122 122 122
3 29 109 155 122 122 122
3 52 53 134 122 122 122
3 31 163 283 122 122 122
3 104 132 325 122 122 122
3 129 279 344 122 122 122
3 46 196 203 122 122 122
3 87 153 338 122 122 122
3 4 189 298 122 122 122
3 95 140 149 122 122 122
3 33 149 165 122 122 122
3 91 111 165 122 122 122
3 171 211 277 122 122 122
3 56 148 211 122 122 122
3 49 56 312 122 122 122
3 44 286 312 122 122 122
3 63 286 321 122 122 122
3 63 76 321 122 122 122
3 57 63 76 122 122 122
3 57 128 142 122 122 122
3 100 142 242 122 122 122
3 70 114 242 122 122 122
3 55 70 288 122 122 122
3 123 288 340 122 122 122
3 45 262 266 122 122 122
3 214 239 271 122 122 122
3 97 138 346 122 122 122
3 83 166 346 122 122 122
3 48 162 201 122 122 122
3 68 291 301 122 122 122
3 59 139 225 122 122 122
3 59 93 139 122 122 122
3 76 112 284 122 122 122
3 60 190 308 122 122 122
3 25 109 154 122 122 122
3 29 109 154 122 122 122
3 29 178 304 122 122 122
3 52 134 178 122 122 122
3 53 223 259 122 122 122
3 71 132 325 122 122 122
3 4 219 298 122 122 122
3 172 240 287 122 122 122
3 33 140 149 122 122 122
3 33 91 165 122 122 122
3 44 63 286 122 122 122
3 57 63 321 122 122 122
3 7 88 133 122 122 122
3 26 68 136 122 122 122
3 68 89 301 122 122 122
3 10 145 169 122 122 122
3 99 145 258 122 122 122
3 99 197 244 122 122 122
3 107 244 306 122 122 122
3 107 160 306 122 122 122
3 119 160 250 122 122 122
3 200 222 305 122 122 122
3 14 188 200 122 122 122
3 272 285 299 122 122 122
3 41 268 329 122 122 122
3 159 185 295 122 122 122
3 116 247 248 122 122 122
3 82 162 337 122 122 122
3 27 130 303 122 122 122
3 37 141 303 122 122 122
3 131 237 335 122 122 122
3 62 131 335 122 122 122
3 22 62 125 122 122 122
3 8 125 254 122 122 122
3 8 80 125 122 122 122
3 36 120 206 122 122 122
3 146 156 181 122 122 122
3 15 146 156 122 122 122
3 15 69 186 122 122 122
3 69 94 300 122 122 122
3 74 218 300 122 122 122
3 38 105 282 122 122 122
3 38 177 303 122 122 122
3 37 177 303 122 122 122
3 22 62 182 122 122 122
3 80 104 125 122 122 122
3 36 206 251 122 122 122
3 61 220 264 122 122 122
3 42 177 184 122 122 122
3 50 78 131 122 122 122
3 36 168 251 122 122 122
3 51 156 238 122 122 122
3 156 232 238 122 122 122
3 2 56 105 122 122 122
3 112 177 284 122 122 122
3 129 251 344 122 122 122
3 61 150 189 122 122 122
3 51 322 339 122 122 122
3 149 186 232 122 122 122
3 169 212 308 122 122 122
3 58 169 212 122 122 122
3 25 58 275 122 122 122
3 25 275 296 122 122 122
3 154 230 296 122 122 122
3 154 304 330 122 122 122
3 46 194 261 122 122 122
3 87 164 298 122 122 122
3 21 233 326 122 122 122
3 240 289 324 122 122 122
3 33 140 252 122 122 122
3 91 103 310 122 122 122
3 17 148 333 122 122 122
3 49 148 204 122 122 122
3 34 49 270 122 122 122
3 63 108 270 122 122 122
3 20 64 228 122 122 122
3 9 288 340 122 122 122
3 124 143 278 122 122 122
3 145 169 258 122 122 122
3 99 117 258 122 122 122
3 14 188 285 122 122 122
3 41 272 299 122 122 122
3 72 268 329 122 122 122
3 54 90 342 122 122 122
3 217 246 295 122 122 122
3 126 231 236 122 122 122
3 192 269 323 122 122 122
3 5 317 331 122 122 122
3 82 255 337 122 122 122
3 115 151 328 122 122 122
3 144 224 313 122 122 122
3 38 141 303 122 122 122
3 37 141 316 122 122 122
3 62 179 335 122 122 122
3 62 179 254 122 122 122
3 62 125 254 122 122 122
3 8 120 206 122 122 122
3 120 220 245 122 122 122
3 181 220 245 122 122 122
3 146 181 245 122 122 122
3 15 113 146 122 122 122
3 15 69 113 122 122 122
3 74 84 300 122 122 122
3 74 161 282 122 122 122
3 38 161 282 122 122 122
3 8 80 206 122 122 122
3 36 120 220 122 122 122
3 181 220 339 122 122 122
3 1 50 316 122 122 122
3 36 168 264 122 122 122
3 15 156 232 122 122 122
3 22 163 182 122 122 122
3 51 172 238 122 122 122
3 60 212 308 122 122 122
3 29 154 304 122 122 122
3 52 223 241 122 122 122
3 31 280 283 122 122 122
3 4 73 219 122 122 122
3 21 208 326 122 122 122
3 240 287 324 122 122 122
3 33 91 103 122 122 122
3 171 256 260 122 122 122
3 148 211 333 122 122 122
3 44 63 270 122 122 122
3 20 64 239 122 122 122
3 3 81 293 122 122 122
3 7 83 248 122 122 122
3 118 143 201 122 122 122
3 26 199 294 122 122 122
3 89 225 301 122 122 122
3 23 284 286 122 122 122
3 25 154 296 122 122 122
3 132 280 283 122 122 122
3 46 261 338 122 122 122
3 21 172 240 122 122 122
3 20 198 214 122 122 122
3 68 136 345 122 122 122
3 48 199 226 122 122 122
3 41 213 268 122 122 122
3 72 268 334 122 122 122
3 115 210 328 122 122 122
3 151 302 328 122 122 122
3 37 177 184 122 122 122
3 69 111 186 122 122 122
3 53 134 276 122 122 122
3 153 168 264 122 122 122
3 232 238 287 122 122 122
3 95 149 232 122 122 122
3 178 187 304 122 122 122
3 16 98 319 122 122 122
3 21 215 233 122 122 122
3 174 289 324 122 122 122
3 20 96 228 122 122 122
3 24 85 88 122 122 122
3 20 214 239 122 122 122
3 79 281 340 122 122 122
3 14 81 281 122 122 122
3 64 262 274 122 122 122
3 47 93 284 122 122 122
3 31 53 163 122 122 122
3 46 168 203 122 122 122
3 87 150 153 122 122 122
3 55 114 306 122 122 122
3 55 123 250 122 122 122
3 79 123 305 122 122 122
3 14 79 200 122 122 122
3 14 285 299 122 122 122
3 5 143 331 122 122 122
3 130 177 284 122 122 122
3 42 177 284 122 122 122
3 196 203 344 122 122 122
3 150 189 298 122 122 122
3 100 114 197 122 122 122
3 45 293 329 122 122 122
3 72 266 274 122 122 122
3 138 217 246 122 122 122
3 80 104 325 122 122 122
3 168 203 251 122 122 122
3 23 93 284 122 122 122
3 52 178 241 122 122 122
3 71 279 319 122 122 122
3 16 98 196 122 122 122
3 164 219 298 122 122 122
3 73 208 326 122 122 122
3 0 287 324 122 122 122
3 229 256 260 122 122 122
3 166 231 236 122 122 122
3 115 151 291 122 122 122
3 59 224 313 122 122 122
3 52 53 223 122 122 122
3 31 53 259 122 122 122
3 16 279 344 122 122 122
3 65 91 260 122 122 122
3 6 97 106 122 122 122
3 170 178 241 122 122 122
3 122 140 252 122 122 122
3 91 229 310 122 122 122
3 46 153 338 122 122 122
3 4 73 322 122 122 122
3 21 172 208 122 122 122
3 49 56 148 122 122 122
3 197 244 306 122 122 122
3 138 217 231 122 122 122
3 7 116 192 122 122 122
3 104 132 283 122 122 122
3 46 153 168 122 122 122
3 87 150 298 122 122 122
3 45 266 329 122 122 122
3 124 192 331 122 122 122
3 199 226 294 122 122 122
3 59 77 225 122 122 122
3 189 322 339 122 122 122
3 87 261 338 122 122 122
3 6 97 246 122 122 122
3 16 196 344 122 122 122
3 6 185 246 122 122 122
3 166 175 248 122 122 122
3 143 201 337 122 122 122
3 41 293 329 122 122 122
3 65 171 260 122 122 122
3 166 175 236 122 122 122
3 151 291 301 122 122 122
3 104 163 283 122 122 122
3 14 81 299 122 122 122
3 138 166 231 122 122 122
3 7 133 192 122 122 122
3 73 208 322 122 122 122
3 90 239 271 122 122 122
3 34 49 204 122 122 122
3 63 86 108 122 122 122
3 38 105 177 122 122 122
3 127 249 259 122 122 122
3 13 136 137 122 122 122
3 9 32 180 122 122 122
3 99 221 244 122 122 122
3 175 247 315 122 122 122
3 30 82 309 122 122 122
3 77 151 302 122 122 122
3 144 311 313 122 122 122
3 101 141 237 122 122 122
3 101 237 335 122 122 122
3 69 113 227 122 122 122
3 132 253 280 122 122 122
3 83 166 248 122 122 122
3 117 167 258 122 122 122
3 40 117 221 122 122 122
3 107 265 318 122 122 122
3 159 295 327 122 122 122
3 92 126 231 122 122 122
3 116 207 323 122 122 122
3 269 317 320 122 122 122
3 302 311 313 122 122 122
3 27 202 332 122 122 122
3 141 161 202 122 122 122
3 101 141 202 122 122 122
3 101 179 335 122 122 122
3 43 120 245 122 122 122
3 84 227 300 122 122 122
3 74 84 161 122 122 122
3 38 161 202 122 122 122
3 43 146 245 122 122 122
3 43 113 146 122 122 122
3 38 141 202 122 122 122
3 38 141 161 122 122 122
3 69 227 300 122 122 122
3 141 237 316 122 122 122
3 215 240 289 122 122 122
3 127 223 241 122 122 122
3 54 72 274 122 122 122
3 269 317 331 122 122 122
3 5 255 337 122 122 122
3 51 172 208 122 122 122
3 272 285 336 122 122 122
3 54 72 334 122 122 122
3 88 124 278 122 122 122
3 16 279 319 122 122 122
3 87 195 261 122 122 122
3 188 200 347 122 122 122
3 116 207 247 122 122 122
3 51 156 181 122 122 122
3 30 82 226 122 122 122
3 76 284 286 122 122 122
3 112 284 286 122 122 122
3 5 143 337 122 122 122
3 119 160 265 122 122 122
3 188 285 336 122 122 122
3 41 213 272 122 122 122
3 38 202 303 122 122 122
3 167 169 258 122 122 122
3 233 292 326 122 122 122
3 35 209 343 122 122 122
3 75 216 234 122 122 122
3 98 196 257 122 122 122
3 87 164 195 122 122 122
3 92 217 231 122 122 122
3 269 320 323 122 122 122
3 82 255 309 122 122 122
3 107 160 265 122 122 122
3 18 159 327 122 122 122
3 30 210 309 122 122 122
3 63 76 286 122 122 122
3 200 222 347 122 122 122
3 92 217 295 122 122 122
3 77 302 313 122 122 122
3 27 202 303 122 122 122
3 141 202 303 122 122 122
3 99 117 221 122 122 122
3 40 117 167 122 122 122
3 10 100 145 122 122 122
3 10 100 128 122 122 122
3 64 274 342 122 122 122
3 64 239 342 122 122 122
3 132 253 263 122 122 122
3 71 132 263 122 122 122
3 119 250 305 122 122 122
3 119 222 305 122 122 122
3 30 115 294 122 122 122
3 30 115 210 122 122 122
3 144 224 332 122 122 122
3 27 224 332 122 122 122
3 58 212 273 122 122 122
3 25 58 273 122 122 122
3 95 122 140 122 122 122
3 0 95 122 122 122 122
3 83 235 346 122 122 122
3 39 235 346 122 122 122
3 126 175 315 122 122 122
3 126 175 236 122 122 122
3 73 243 292 122 122 122
3 73 219 243 122 122 122
3 89 135 139 122 122 122
3 19 135 139 122 122 122
3 78 134 178 122 122 122
3 29 78 178 122 122 122
3 159 185 271 122 122 122
3 18 159 271 122 122 122
3 129 279 325 122 122 122
3 71 279 325 122 122 122
3 249 259 280 122 122 122
3 31 259 280 122 122 122
3 194 196 257 122 122 122
3 46 194 196 122 122 122
3 221 244 318 122 122 122
3 107 244 318 122 122 122
3 54 90 290 122 122 122
3 18 90 290 122 122 122
3 0 174 324 122 122 122
3 0 122 174 122 122 122
3 122 174 341 122 122 122
